<svg xmlns="http://www.w3.org/2000/svg" xmlns:svg="http://www.w3.org/2000/svg" id="svg" width="24" height="24" version="1.1" viewBox="0 0 24 24"><defs id="defs"><clipPath id="clipPathBody" clipPathUnits="userSpaceOnUse"><path style="fill:#fbbc04;fill-opacity:1;fill-rule:evenodd;stroke:none;stroke-width:2" id="path829" d="M 5 12 L 5 16 A 7 7 0 0 0 12 23 A 7 7 0 0 0 19 16 L 19 12 L 5 12 z"/></clipPath></defs><g id="layer"><path style="fill:#b06000;fill-opacity:1;stroke:none;stroke-width:1px;stroke-linecap:butt;stroke-linejoin:miter;stroke-opacity:1" id="antennae" d="M 16.12,4.37 18.22,2.27 17.4,1.44 15.1,3.75 Z M 8.91,3.75 6.6,1.44 5.78,2.27 l 2.1,2.1 z"/><path style="fill:#fbbc04;fill-opacity:1;fill-rule:evenodd;stroke:none;stroke-width:1.39999" id="head" d="M 12 3 A 7 7 0 0 0 5 10 L 5 11 L 19 11 L 19 10 A 7 7 0 0 0 12 3 z"/><path style="fill:#fbbc04;fill-opacity:1;fill-rule:evenodd;stroke:none;stroke-width:2" id="body" d="M 5 12 L 5 16 A 7 7 0 0 0 12 23 A 7 7 0 0 0 19 16 L 19 12 L 5 12 z"/><path style="fill:#b06000;fill-opacity:1;fill-rule:evenodd;stroke:none;stroke-width:2" id="stripes" d="M 5 12 L 5 14 L 19 14 L 19 12 L 5 12 z M 5 16 L 5 18 L 19 18 L 19 16 L 5 16 z M 5 20 L 5 22 L 19 22 L 19 20 L 5 20 z" clip-path="url(#clipPathBody)"/><path style="fill:#b06000;fill-rule:evenodd;stroke-width:2" id="eyes" d="M 16,8 A 1,1 0 0 1 15,9 1,1 0 0 1 14,8 1,1 0 0 1 15,7 1,1 0 0 1 16,8 Z M 10,8 A 1,1 0 0 1 9,9 1,1 0 0 1 8,8 1,1 0 0 1 9,7 1,1 0 0 1 10,8 Z"/></g></svg>