<svg xmlns="http://www.w3.org/2000/svg" xmlns:svg="http://www.w3.org/2000/svg" id="svg" width="108" height="108" version="1.1" viewBox="0 0 108 108"><defs id="defs"><clipPath id="clipPathBody" clipPathUnits="userSpaceOnUse"><path style="fill:#fbbc04;fill-opacity:1;fill-rule:evenodd;stroke:none;stroke-width:2" id="path829" d="m 5,12 v 4 a 7,7 0 0 0 7,7 7,7 0 0 0 7,-7 v -4 z"/></clipPath></defs><g id="layer" transform="translate(25.2, 25.2) scale(2.4)"><path style="fill:#b06000;fill-opacity:1;stroke:none;stroke-width:1px;stroke-linecap:butt;stroke-linejoin:miter;stroke-opacity:1" id="antennae" d="M 16.12,4.37 18.22,2.27 17.4,1.44 15.1,3.75 Z M 8.91,3.75 6.6,1.44 5.78,2.27 l 2.1,2.1 z"/><path style="fill:#fbbc04;fill-opacity:1;fill-rule:evenodd;stroke:none;stroke-width:1.39999" id="head" d="m 12,3 a 7,7 0 0 0 -7,7 v 1 H 19 V 10 A 7,7 0 0 0 12,3 Z"/><path style="fill:#fbbc04;fill-opacity:1;fill-rule:evenodd;stroke:none;stroke-width:2" id="body" d="m 5,12 v 4 a 7,7 0 0 0 7,7 7,7 0 0 0 7,-7 v -4 z"/><path style="fill:#b06000;fill-opacity:1;fill-rule:evenodd;stroke:none;stroke-width:2" id="stripes" d="m 5,12 v 2 h 14 v -2 z m 0,4 v 2 h 14 v -2 z m 0,4 v 2 h 14 v -2 z" clip-path="url(#clipPathBody)"/><path style="fill:#b06000;fill-rule:evenodd;stroke-width:2" id="eyes" d="M 16,8 A 1,1 0 0 1 15,9 1,1 0 0 1 14,8 1,1 0 0 1 15,7 1,1 0 0 1 16,8 Z M 10,8 A 1,1 0 0 1 9,9 1,1 0 0 1 8,8 1,1 0 0 1 9,7 1,1 0 0 1 10,8 Z"/></g></svg>