<svg xmlns="http://www.w3.org/2000/svg" xmlns:svg="http://www.w3.org/2000/svg" id="svg" width="108" height="108" version="1.1" viewBox="0 0 108 108"><defs id="defs"><filter style="color-interpolation-filters:sRGB" id="filterCircleShadow" width="1.067" height="1.081" x="-.033" y="-.033"><feFlood id="feFlood10753" flood-color="#000" flood-opacity=".3" result="flood"/><feComposite id="feComposite10755" in="flood" in2="SourceGraphic" operator="in" result="composite1"/><feGaussianBlur id="feGaussianBlur10757" in="composite1" result="blur" stdDeviation="1"/><feOffset id="feOffset10759" dx="0" dy="1" result="offset"/><feComposite id="feComposite10761" in="SourceGraphic" in2="offset" operator="over" result="composite2"/></filter></defs><g id="layer"><circle style="opacity:1;fill:#fff;fill-opacity:1;fill-rule:nonzero;stroke:none;stroke-width:1.54617035;stroke-linecap:round;stroke-linejoin:miter;stroke-miterlimit:4;stroke-dasharray:none;stroke-opacity:1;filter:url(#filterCircleShadow)" id="circle" cx="54" cy="54" r="36"/><path style="opacity:1;fill:#000;fill-opacity:.2;fill-rule:nonzero;stroke:none;stroke-width:1.54617035;stroke-linecap:round;stroke-linejoin:miter;stroke-miterlimit:4;stroke-dasharray:none;stroke-opacity:1" id="circle-edge-bottom" d="M 89.990234,53.707031 A 36,36 0 0 1 54,89.5 36,36 0 0 1 18.009766,53.792969 36,36 0 0 0 18,54 36,36 0 0 0 54,90 36,36 0 0 0 90,54 36,36 0 0 0 89.9902,53.707031 Z"/><path style="opacity:1;fill:#fff;fill-opacity:.2;fill-rule:nonzero;stroke:none;stroke-width:1.54617035;stroke-linecap:round;stroke-linejoin:miter;stroke-miterlimit:4;stroke-dasharray:none;stroke-opacity:1" id="circle-edge-top" d="M 54,18 A 36,36 0 0 0 18,54 36,36 0 0 0 18.0098,54.292969 36,36 0 0 1 54,18.5 36,36 0 0 1 89.990234,54.207031 36,36 0 0 0 90,54 36,36 0 0 0 54,18 Z"/></g></svg>